<svg width="20" height="18" viewBox="0 0 20 18" fill="none" xmlns="http://www.w3.org/2000/svg">
<path d="M15.4167 0H4.58333C3.36816 0.00129941 2.20314 0.475823 1.34389 1.31945C0.484634 2.16309 0.00132347 3.30692 0 4.5L0 13.5C0.00132347 14.6931 0.484634 15.8369 1.34389 16.6805C2.20314 17.5242 3.36816 17.9987 4.58333 18H15.4167C16.6318 17.9987 17.7969 17.5242 18.6561 16.6805C19.5154 15.8369 19.9987 14.6931 20 13.5V4.5C19.9987 3.30692 19.5154 2.16309 18.6561 1.31945C17.7969 0.475823 16.6318 0.00129941 15.4167 0ZM15.4167 2.45455C15.9221 2.4562 16.4092 2.6399 16.7858 2.97082L11.3692 8.289C11.0013 8.634 10.5121 8.82651 10.0033 8.82651C9.49458 8.82651 9.0054 8.634 8.6375 8.289L3.22083 2.97082C3.59571 2.6414 4.08025 2.45779 4.58333 2.45455H15.4167ZM15.4167 15.5455H4.58333C4.0308 15.5455 3.5009 15.33 3.11019 14.9464C2.71949 14.5628 2.5 14.0425 2.5 13.5V5.74118L6.86583 10.0276C7.2773 10.4318 7.76584 10.7524 8.30353 10.9711C8.84123 11.1899 9.41756 11.3025 9.99958 11.3025C10.5816 11.3025 11.1579 11.1899 11.6956 10.9711C12.2333 10.7524 12.7219 10.4318 13.1333 10.0276L17.5 5.74118V13.5C17.5 14.0425 17.2805 14.5628 16.8898 14.9464C16.4991 15.33 15.9692 15.5455 15.4167 15.5455Z" fill="white"/>
</svg>
