<svg width="31" height="30" viewBox="0 0 31 30" fill="none" xmlns="http://www.w3.org/2000/svg">
<circle cx="15.8848" cy="15" r="15" fill="#D7F4FF"/>
<path d="M22.8077 8.0769H8.9615C8.34946 8.0769 7.76249 8.32004 7.32972 8.75281C6.89694 9.18559 6.65381 9.77256 6.65381 10.3846L6.65381 19.6154C6.65381 20.2274 6.89694 20.8144 7.32972 21.2472C7.76249 21.6799 8.34946 21.9231 8.9615 21.9231H22.8077C23.4197 21.9231 24.0067 21.6799 24.4394 21.2472C24.8722 20.8144 25.1153 20.2274 25.1153 19.6154V10.3846C25.1153 9.77256 24.8722 9.18559 24.4394 8.75281C24.0067 8.32004 23.4197 8.0769 22.8077 8.0769ZM8.9615 9.80767H22.8077C22.9607 9.80767 23.1074 9.86846 23.2156 9.97665C23.3238 10.0848 23.3846 10.2316 23.3846 10.3846V11.1831L17.3696 16.1631C16.5342 16.8588 15.2303 16.8577 14.3961 16.1631L8.38458 11.1865V10.3846C8.38458 10.2316 8.44536 10.0848 8.55355 9.97665C8.66175 9.86846 8.80849 9.80767 8.9615 9.80767ZM22.8077 20.1923H8.9615C8.80849 20.1923 8.66175 20.1315 8.55355 20.0233C8.44536 19.9151 8.38458 19.7684 8.38458 19.6154V13.4388L13.2919 17.5281C14.0217 18.1315 14.9392 18.4614 15.8861 18.461C16.8331 18.4606 17.7503 18.1298 18.4796 17.5258L23.3846 13.4377V19.6154C23.3846 19.9327 23.125 20.1923 22.8077 20.1923Z" fill="#334C8B"/>
</svg>
