<svg width="18" height="18" viewBox="0 0 18 18" fill="none" xmlns="http://www.w3.org/2000/svg">
<path d="M14.6189 0H3.37359C1.51437 0 0 1.515 0 3.375V14.625C0 16.485 1.51437 18 3.37359 18H12.1075C13.172 18 14.1766 17.5875 14.9263 16.83L16.8305 14.925C17.5802 14.175 18 13.17 18 12.105V3.375C18 1.515 16.4856 0 14.6264 0H14.6189ZM2.24906 14.625V3.375C2.24906 2.7525 2.75135 2.25 3.37359 2.25H14.6189C15.2411 2.25 15.7434 2.7525 15.7434 3.375V11.25H13.4944C12.2574 11.25 11.2453 12.2625 11.2453 13.5V15.75H3.37359C2.75135 15.75 2.24906 15.2475 2.24906 14.625Z" fill="white"/>
</svg>
