<svg width="31" height="30" viewBox="0 0 31 30" fill="none" xmlns="http://www.w3.org/2000/svg">
<circle cx="15.3462" cy="15" r="15" fill="#D7F4FF"/>
<path d="M21.4254 16.7385L18.7668 15.601C18.4844 15.4789 18.1698 15.4523 17.8709 15.5251C17.5719 15.5979 17.3048 15.7663 17.1102 16.0046L16.3674 16.9105C15.1591 16.214 14.1518 15.2163 13.4438 14.0146L14.3517 13.2708C14.8364 12.8752 15.0045 12.1977 14.7582 11.6191L13.6129 8.92891C13.4801 8.62537 13.2454 8.37774 12.9494 8.22877C12.6535 8.07979 12.3148 8.03883 11.9918 8.11294L9.52219 8.68263C9.2093 8.75276 8.92977 8.9277 8.72992 9.17845C8.53007 9.42921 8.42191 9.74072 8.42335 10.0614C8.42335 16.602 13.7484 21.9231 20.2969 21.9231C20.9616 21.9231 21.5293 21.4721 21.6519 20.8272L22.2226 18.3565C22.3077 18.036 22.2739 17.6955 22.1273 17.3981C21.9808 17.1006 21.7314 16.8663 21.4254 16.7385ZM20.9813 18.0638L20.4106 20.5364C20.3978 20.5661 20.3533 20.6254 20.2959 20.6254C14.4655 20.6254 9.72297 15.8869 9.72297 10.0614C9.72297 10.005 9.75758 9.96049 9.81297 9.94763L12.2856 9.37794C12.3125 9.37202 12.3406 9.37546 12.3652 9.3877C12.3898 9.39993 12.4096 9.42021 12.4211 9.44519L13.5615 12.1048C13.5713 12.1281 13.5733 12.154 13.5673 12.1786C13.5612 12.2032 13.5474 12.2251 13.5278 12.2412L12.2075 13.2995C12.0944 13.3923 12.016 13.5205 11.9849 13.6634C11.9538 13.8063 11.972 13.9555 12.0364 14.0868C12.9384 15.9137 14.418 17.3919 16.2458 18.2923C16.492 18.4248 16.8431 18.3536 17.035 18.1211L18.118 16.7988C18.1339 16.7798 18.1556 16.7665 18.1797 16.7611C18.2039 16.7558 18.2292 16.7586 18.2516 16.7691L20.9111 17.9065C20.9625 17.953 20.9922 18.0104 20.9813 18.0648V18.0638Z" fill="#334C8B"/>
</svg>
