<svg width="5" height="23" viewBox="0 0 5 23" fill="none" xmlns="http://www.w3.org/2000/svg">
<path d="M2.5 17.6923C3.16304 17.6923 3.79893 17.9719 4.26777 18.4696C4.73661 18.9673 5 19.6423 5 20.3462C5 21.05 4.73661 21.725 4.26777 22.2227C3.79893 22.7204 3.16304 23 2.5 23C1.83696 23 1.20107 22.7204 0.732233 22.2227C0.263391 21.725 3.35497e-08 21.05 6.43157e-08 20.3462C9.50817e-08 19.6423 0.263392 18.9673 0.732233 18.4696C1.20107 17.9719 1.83696 17.6923 2.5 17.6923ZM2.5 8.84615C3.16304 8.84615 3.79893 9.12575 4.26777 9.62345C4.73661 10.1211 5 10.7962 5 11.5C5 12.2038 4.73661 12.8789 4.26777 13.3766C3.79893 13.8742 3.16304 14.1538 2.5 14.1538C1.83696 14.1538 1.20107 13.8742 0.732233 13.3766C0.263392 12.8789 4.20227e-07 12.2038 4.50993e-07 11.5C4.81759e-07 10.7962 0.263392 10.1211 0.732233 9.62345C1.20107 9.12575 1.83696 8.84615 2.5 8.84615ZM2.5 5.30769C1.83696 5.30769 1.20107 5.02809 0.732233 4.5304C0.263392 4.03271 8.06905e-07 3.35769 8.37671e-07 2.65385C8.68437e-07 1.95 0.263392 1.27499 0.732233 0.777293C1.20107 0.279601 1.83696 -1.38261e-07 2.5 -1.09278e-07C3.16304 -8.0296e-08 3.79893 0.279601 4.26777 0.777294C4.73661 1.27499 5 1.95 5 2.65385C5 3.35769 4.73661 4.03271 4.26777 4.5304C3.79893 5.02809 3.16304 5.30769 2.5 5.30769Z" fill="#787575"/>
</svg>
