<svg width="14" height="14" viewBox="0 0 14 14" fill="none" xmlns="http://www.w3.org/2000/svg">
<path d="M13.7429 12.5093L11.0333 9.79859C13.0608 7.08922 12.508 3.24926 9.79859 1.22182C7.08922 -0.805618 3.24926 -0.252802 1.22182 2.45656C-0.805618 5.16593 -0.252802 9.00589 2.45656 11.0333C4.63295 12.6619 7.62217 12.6619 9.79859 11.0333L12.5093 13.7441C12.85 14.0847 13.4023 14.0847 13.7429 13.7441C14.0835 13.4034 14.0835 12.8511 13.7429 12.5105L13.7429 12.5093ZM6.15016 10.5101C3.74221 10.5101 1.7902 8.55812 1.7902 6.15016C1.7902 3.74221 3.74221 1.7902 6.15016 1.7902C8.55812 1.7902 10.5101 3.74221 10.5101 6.15016C10.5076 8.55703 8.55706 10.5076 6.15016 10.5101Z" fill="#6F6F6F"/>
</svg>
