<svg width="31" height="30" viewBox="0 0 31 30" fill="none" xmlns="http://www.w3.org/2000/svg">
<circle cx="15.8848" cy="15" r="15" fill="#D7F4FF"/>
<path fill-rule="evenodd" clip-rule="evenodd" d="M21.7192 9.32533C20.2219 7.82667 18.2312 7.00067 16.1106 7C11.7406 7 8.1839 10.556 8.1819 14.928C8.18123 16.3253 8.54657 17.6893 9.24057 18.892L8.11523 23L12.3179 21.8973C13.4759 22.5293 14.7799 22.862 16.1066 22.8627H16.1099C20.4792 22.8627 24.0366 19.306 24.0386 14.934C24.0399 12.816 23.2159 10.8233 21.7192 9.32533ZM16.1106 21.5233H16.1079C14.9252 21.5233 13.7659 21.2053 12.7539 20.6047L12.5132 20.462L10.0192 21.116L10.6852 18.684L10.5286 18.4347C9.86857 17.3853 9.52057 16.1727 9.52123 14.928C9.52257 11.2947 12.4792 8.33867 16.1139 8.33867C17.8739 8.33867 19.5286 9.02533 20.7726 10.2707C22.0166 11.5167 22.7012 13.172 22.7006 14.9327C22.6986 18.5673 19.7426 21.5233 16.1106 21.5233ZM19.7252 16.588C19.5272 16.4887 18.5532 16.0093 18.3712 15.9433C18.1899 15.8773 18.0579 15.844 17.9252 16.042C17.7926 16.24 17.4139 16.6867 17.2979 16.8193C17.1826 16.9513 17.0666 16.968 16.8686 16.8687C16.6706 16.7693 16.0319 16.5607 15.2752 15.8853C14.6866 15.36 14.2886 14.7113 14.1732 14.5127C14.0579 14.314 14.1612 14.2073 14.2599 14.1087C14.3492 14.02 14.4579 13.8773 14.5572 13.7613C14.6572 13.6467 14.6899 13.564 14.7566 13.4313C14.8226 13.2993 14.7899 13.1833 14.7399 13.084C14.6899 12.9853 14.2939 12.01 14.1292 11.6133C13.9686 11.2267 13.8052 11.2793 13.6832 11.2733C13.5679 11.2673 13.4359 11.2667 13.3032 11.2667C13.1712 11.2667 12.9566 11.316 12.7752 11.5147C12.5939 11.7133 12.0819 12.1927 12.0819 13.1673C12.0819 14.1427 12.7919 15.0847 12.8906 15.2167C12.9892 15.3487 14.2872 17.35 16.2746 18.208C16.7472 18.412 17.1166 18.534 17.4039 18.6253C17.8786 18.776 18.3106 18.7547 18.6519 18.704C19.0326 18.6473 19.8239 18.2247 19.9892 17.762C20.1546 17.2993 20.1546 16.902 20.1046 16.82C20.0552 16.7367 19.9232 16.6873 19.7252 16.588Z" fill="#334C8B"/>
</svg>
